<svg width="24" height="24" viewBox="0 0 24 24" fill="none" xmlns="http://www.w3.org/2000/svg">
<path fill-rule="evenodd" clip-rule="evenodd" d="M12.1523 15.1522C10.4955 15.1522 9.15225 13.809 9.15225 12.1522C9.15225 11.5965 9.3135 11.0835 9.576 10.6372L13.6673 14.7277C13.221 14.991 12.7073 15.1522 12.1523 15.1522V15.1522ZM12.1522 9.15225C13.809 9.15225 15.1522 10.4955 15.1522 12.1523C15.1522 12.7073 14.991 13.221 14.7277 13.6673L10.6372 9.576C11.0835 9.3135 11.5965 9.15225 12.1522 9.15225V9.15225ZM22.8045 21.744L18.5272 17.4667C21.4087 15.2527 22.6522 12.1523 22.6522 12.1523C22.6522 12.1523 19.6523 4.65225 12.1523 4.65225C10.1355 4.65225 8.4465 5.1975 7.0515 5.99025L2.5605 1.5L1.5 2.5605L5.77725 6.83775C2.89575 9.05175 1.65225 12.1523 1.65225 12.1523C1.65225 12.1523 4.65225 19.6522 12.1523 19.6522C14.169 19.6522 15.858 19.107 17.2537 18.3143L21.744 22.8045L22.8045 21.744Z" fill="#676767"/>
</svg>
